<svg xmlns="http://www.w3.org/2000/svg" width="20.939" height="17.101" viewBox="0 0 20.939 17.101">
  <g id="Auction" transform="translate(0 0)">
    <path id="Path_12165" data-name="Path 12165" d="M291.429,133.95l-3.483,3.488,2.816,2.816,3.483-3.483-.012-.012-2.792-2.8Z" transform="translate(-280.736 -131.672)" fill="#fff"/>
    <path id="Path_12166" data-name="Path 12166" d="M242.119,88.121a1.211,1.211,0,0,0,0,1.707l2.792,2.792a1.207,1.207,0,0,0,1.707-1.707l-2.792-2.792a1.211,1.211,0,0,0-1.707,0Z" transform="translate(-231.149 -87.769)" fill="#fff"/>
    <path id="Path_12167" data-name="Path 12167" d="M356.709,202.715a1.211,1.211,0,0,0,0,1.708l2.792,2.792a1.207,1.207,0,0,0,1.707-1.707l-2.792-2.792a1.211,1.211,0,0,0-1.707,0Z" transform="translate(-351.457 -196.644)" fill="#fff"/>
    <path id="Path_12168" data-name="Path 12168" d="M140.049,215.984l7.3,7.736.016.016a.784.784,0,0,0,.575.231.846.846,0,0,0,.574-.227l.016-.016.927-.927a.839.839,0,0,0,.227-.575.818.818,0,0,0-.231-.575l-.016-.016-7.736-7.3Z" transform="translate(-128.743 -207.992)" fill="#fff"/>
    <path id="Path_12169" data-name="Path 12169" d="M350.725,426.62H341.31a.714.714,0,0,0-.5.206.7.7,0,0,0-.206.5v.842a.714.714,0,0,0,.206.5.7.7,0,0,0,.5.206h9.415a.714.714,0,0,0,.5-.206.7.7,0,0,0,.206-.5v-.842a.714.714,0,0,0-.206-.5A.7.7,0,0,0,350.725,426.62Z" transform="translate(-340.606 -411.768)" fill="#fff"/>
    <path id="Path_12170" data-name="Path 12170" d="M376.079,387.58h-6.635a.714.714,0,0,0-.5.206.7.7,0,0,0-.206.5v.842a.267.267,0,0,0,0,.057h8.035c0-.02,0-.036,0-.057v-.842a.714.714,0,0,0-.206-.5.7.7,0,0,0-.5-.206Z" transform="translate(-367.348 -374.678)" fill="#fff"/>
  </g>
</svg>
