<svg xmlns="http://www.w3.org/2000/svg" width="15.6" height="20.328" viewBox="0 0 15.6 20.328">
  <g id="Free" transform="translate(0)">
    <path id="Path_12171" data-name="Path 12171" d="M178.1,304.729a.473.473,0,0,0,.473.473h6.049v-9.565H178.1Z" transform="translate(-177.23 -284.873)" fill="#fff"/>
    <path id="Path_12172" data-name="Path 12172" d="M360.75,305.2H366.8a.473.473,0,0,0,.472-.473v-9.093H360.75Z" transform="translate(-352.541 -284.871)" fill="#fff"/>
    <path id="Path_12173" data-name="Path 12173" d="M357.09,33.936c2.25-.562,7.962-2.24,3.5-3.87a.683.683,0,0,1-.361-.37c-1.594-4.566-3.234,1.277-3.784,3.579-.112.472.184.776.646.661Z" transform="translate(-348.386 -28)" fill="#fff"/>
    <path id="Path_12174" data-name="Path 12174" d="M224.668,58.024a.555.555,0,0,1-.292.3c-3.609,1.318,1.01,2.675,2.829,3.129.373.093.613-.153.522-.534-.444-1.861-1.771-6.585-3.059-2.894Z" transform="translate(-220.36 -55.493)" fill="#fff"/>
    <path id="Path_12175" data-name="Path 12175" d="M156.61,188.677v2.533a.473.473,0,0,0,.473.473H164V188.2h-6.918a.473.473,0,0,0-.473.473Z" transform="translate(-156.61 -181.748)" fill="#fff"/>
    <path id="Path_12176" data-name="Path 12176" d="M367.658,188.2H360.74v3.478h6.918a.473.473,0,0,0,.473-.473v-2.533a.473.473,0,0,0-.473-.473Z" transform="translate(-352.531 -181.742)" fill="#fff"/>
  </g>
</svg>
