<svg xmlns="http://www.w3.org/2000/svg" width="17.75" height="18.296" viewBox="0 0 17.75 18.296">
  <g id="Price" transform="translate(0 0)">
    <path id="Path_12164" data-name="Path 12164" d="M204.468,112.356a.552.552,0,1,0-1.042.366c.85,2.44-.836,4.269-2.135,5.245l-.518-.744a1.221,1.221,0,0,0-.869-.461h-2.915a1.981,1.981,0,0,0-1,.305l-8.584,6.041a.915.915,0,0,0-.226,1.284l3.9,5.587c.3.415.76.366,1.177.076l8.6-6.026a2.027,2.027,0,0,0,.634-.839l.915-2.879h0a1.219,1.219,0,0,0-.134-.976l-.3-.454c1.71-1.324,3.5-3.663,2.507-6.526Zm-4,8.563a1.473,1.473,0,1,1,.021-2.4c-.25.149-.42.238-.451.253a.553.553,0,0,0,.473,1,6.142,6.142,0,0,0,.567-.305h0a1.479,1.479,0,0,1-.61,1.455Z" transform="translate(-187.004 -111.986)" fill="#fff"/>
  </g>
</svg>
